<svg width="64" height="64" viewBox="0 0 64 64" fill="none" xmlns="http://www.w3.org/2000/svg">
<rect width="64" height="64" rx="4" fill="#2B2B3D"/>
<path d="M22.6943 10C24.7544 10 26.797 10.3977 28.8222 11.1924C29.3458 11.3579 29.6082 11.639 29.6083 12.0361L29.9745 16.6992C29.9744 16.8646 29.8695 16.9473 29.6601 16.9473C29.4859 16.9472 29.3816 16.8811 29.3466 16.749C29.1022 15.0272 28.3685 14.4373 27.1464 12.9805C25.9243 11.4905 24.1608 10.7452 21.8564 10.7451C19.901 10.7451 18.4337 11.2912 17.456 12.3838C16.5132 13.4433 16.042 14.7681 16.0419 16.3574C16.0419 17.6488 16.3736 18.7751 17.037 19.7354C17.7004 20.6955 18.5035 21.5067 19.4462 22.1689C20.3891 22.7981 21.7166 23.6101 23.4277 24.6035C25.2431 25.6298 26.6573 26.4903 27.6699 27.1855C28.1335 27.504 28.5631 27.8659 28.9609 28.2676L30.4726 27.1367L33.2294 25.8203C33.2957 25.7872 33.4116 25.7705 33.5771 25.7705C34.0406 25.7706 34.4217 26.1683 34.7197 26.9629C35.0197 27.6533 35.1809 28.6023 35.2089 29.8096C36.4574 28.5523 37.6686 27.5871 38.8417 26.9131C40.398 25.9859 41.9711 25.5225 43.5605 25.5225C44.9181 25.5225 46.1769 25.8867 47.3359 26.6152C48.4947 27.3437 49.4218 28.4033 50.1171 29.7939C50.8124 31.1846 51.1601 32.807 51.1601 34.6611C51.1601 37.1447 50.5975 39.2478 49.4716 40.9697C48.3458 42.6585 46.9544 43.9163 45.2988 44.7441C43.6763 45.5719 42.0707 45.9863 40.4814 45.9863C39.1899 45.9863 38.0637 45.8204 37.1035 45.4893C36.5118 45.3056 35.8828 45.0274 35.2158 44.6553V50.9766C35.2158 51.9699 35.3317 52.6985 35.5634 53.1621C35.8283 53.6256 36.292 53.9399 36.954 54.1055C37.6493 54.3041 38.7258 54.4043 40.1826 54.4043C40.2488 54.4043 40.2822 54.5035 40.2822 54.7021C40.2821 54.9007 40.2488 55 40.1826 55C39.057 55 38.1631 54.9833 37.5009 54.9502L33.8749 54.9004L31.1425 54.9502C30.6791 54.9833 30.0668 55 29.3056 55C29.2063 55 29.1562 54.9007 29.1562 54.7021C29.1562 54.5035 29.2063 54.4043 29.3056 54.4043C30.1995 54.4043 30.8615 54.3041 31.2919 54.1055C31.7224 53.9399 32.0209 53.6257 32.1865 53.1621C32.352 52.6985 32.4345 51.9698 32.4345 50.9766V31.6318C32.4345 30.4399 32.3019 29.5954 32.037 29.0986C31.7722 28.5688 31.3086 28.3037 30.6464 28.3037C30.0385 28.3037 30.0215 28.4623 29.4365 28.7852C29.7224 29.1216 29.9895 29.4821 30.2363 29.8682C30.9695 30.9277 31.3368 32.2025 31.3369 33.6924C31.3369 35.2818 30.9171 36.7232 30.079 38.0146C29.241 39.3058 28.0013 40.3322 26.3603 41.0938C24.7541 41.8222 22.8163 42.1865 20.5468 42.1865C17.8581 42.1865 15.3959 41.6072 13.1611 40.4482C12.9865 40.3489 12.8637 40.233 12.7939 40.1006C12.759 39.9681 12.7243 39.7688 12.6894 39.5039L12.0087 34.749C11.9739 34.6167 12.0434 34.5341 12.2177 34.501C12.4271 34.4679 12.5499 34.5172 12.5849 34.6494C13.1087 37.0003 14.1385 37.0539 15.6747 38.8086C17.2112 40.5305 19.2368 41.3915 21.7509 41.3916C23.4969 41.3916 24.964 40.9449 26.1513 40.0508C27.3734 39.1236 27.9843 37.6664 27.9843 35.6797C27.9843 34.1896 27.6348 32.8984 26.9365 31.8057C26.2381 30.7129 25.3827 29.8184 24.3701 29.123C23.3923 28.3946 22.0479 27.5501 20.3369 26.5898C18.6609 25.6296 17.3341 24.8018 16.3564 24.1064C15.4136 23.4111 14.6097 22.5333 13.9462 21.4736C13.283 20.4142 12.9512 19.1726 12.9511 17.749C12.9511 16.0933 13.4055 14.6853 14.3134 13.5264C15.2562 12.3344 16.4611 11.4574 17.9277 10.8945C19.4292 10.2985 21.0181 10 22.6943 10ZM41.4745 27.4092C40.1501 27.4092 38.9413 27.7569 37.8486 28.4521C37.0301 28.9893 36.1528 29.725 35.2158 30.6572V41.8066C36.0558 42.7316 36.9154 43.4636 37.7988 43.999C38.9246 44.6282 40.3159 44.9434 41.9716 44.9434C43.7264 44.9432 45.1671 44.1813 46.2929 42.6582C47.4186 41.1019 47.9814 38.9494 47.9814 36.2012C47.9814 33.4197 47.3687 31.2674 46.1435 29.7441C44.9183 28.1878 43.362 27.4092 41.4745 27.4092Z" fill="#EDECE3"/>
</svg>
